<?xml version="1.0" encoding="UTF-8" standalone="no"?>
<svg
   xmlns:dc="http://purl.org/dc/elements/1.1/"
   xmlns:cc="http://creativecommons.org/ns#"
   xmlns:rdf="http://www.w3.org/1999/02/22-rdf-syntax-ns#"
   xmlns:svg="http://www.w3.org/2000/svg"
   xmlns="http://www.w3.org/2000/svg"
   xmlns:sodipodi="http://sodipodi.sourceforge.net/DTD/sodipodi-0.dtd"
   xmlns:inkscape="http://www.inkscape.org/namespaces/inkscape"
   version="1.0"
   width="640.000000pt"
   height="457.000000pt"
   viewBox="0 0 640.000000 457.000000"
   preserveAspectRatio="xMidYMid meet"
   id="svg871"
   sodipodi:docname="letter.svg"
   inkscape:version="0.92.2 (5c3e80d, 2017-08-06)">
  <defs
     id="defs875" />
  <sodipodi:namedview
     pagecolor="#ffffff"
     bordercolor="#666666"
     borderopacity="1"
     objecttolerance="10"
     gridtolerance="10"
     guidetolerance="10"
     inkscape:pageopacity="0"
     inkscape:pageshadow="2"
     inkscape:window-width="1600"
     inkscape:window-height="843"
     id="namedview873"
     showgrid="false"
     inkscape:zoom="0.55142232"
     inkscape:cx="367.80024"
     inkscape:cy="639.96434"
     inkscape:window-x="0"
     inkscape:window-y="32"
     inkscape:window-maximized="1"
     inkscape:current-layer="svg871" />
  <metadata
     id="metadata865">
Created by potrace 1.15, written by Peter Selinger 2001-2017
<rdf:RDF>
  <cc:Work
     rdf:about="">
    <dc:format>image/svg+xml</dc:format>
    <dc:type
       rdf:resource="http://purl.org/dc/dcmitype/StillImage" />
    <dc:title></dc:title>
  </cc:Work>
</rdf:RDF>
</metadata>
  <g
     transform="translate(0.000000,457.000000) scale(0.100000,-0.100000)"
     fill="#000000"
     stroke="none"
     id="g869">
    <path
       d="M570 4563 c-14 -2 -54 -13 -90 -24 -182 -57 -326 -181 -411 -355 -73 -150 -69 -31 -69 -1897 0 -1872 -5 -1746 70 -1902 85 -176 246 -309 440 -362 62 -17 199 -18 2700 -18 l2635 0 69 23 c194 65 333 184 416 357 75 156 70 27 70 1927 0 1879 4 1745 -64 1883 -70 139 -179 244 -323 312 -146 68 57 63 -2816 62 -1431 -1 -2613 -4 -2627 -6z m3940 -1588 c-875 -875 -1244 -1238 -1265 -1244 -20 -5 -42 -4 -63 3 -21 7 -431 409 -1262 1234 -676 673 -1230 1228 -1230 1233 0 5 1020 9 2527 9 l2528 0 -1235 -1235z m1540 -2330 c-15 -141 -70 -227 -171 -269 l-35 -15 -865 865 -864 864 970 970 970 970 3 -1647 c1 -1038 -1 -1681 -8 -1738z m-4637 593 l-873 -873 -37 20 c-41 23 -87 80 -105 134 -10 28 -13 420 -15 1766 l-3 1730 952 -952 953 -953 -872 -872z m1802 2 l49 0 303 302 303 303 753 -753 752 -752 -2178 0 c-1197 0 -2177 3 -2177 7 0 5 341 349 757 765 l758 758 315 -315 316 -315 49 0z"
       id="path867" />
  </g>
  <path
     style="opacity:1;fill:#f2ab27;fill-opacity:0;stroke:#f2ab27;stroke-width:0;stroke-miterlimit:4;stroke-dasharray:none;stroke-opacity:0"
     d="M 110.23692,606.71899 65.758916,605.72336 53.448921,599.65859 C 34.820893,590.48111 19.382599,575.02058 10.060617,556.20785 L 2.3815918,540.71076 V 304.68335 68.655955 L 10.066706,53.146906 C 19.219896,34.675183 32.197231,20.662377 47.773873,12.431053 71.232644,0.03449517 43.05722,0.91790989 413.01332,0.97930383 597.10576,1.0098539 757.68789,1.7589812 769.86251,2.6440311 c 19.88037,1.4452275 23.29862,2.2199115 33.54961,7.6033739 15.92383,8.362647 33.74952,26.550355 41.48031,42.322745 l 6.20345,12.65631 v 237.74231 237.74232 l -7.62701,15.39192 c -11.98718,24.19117 -28.35489,38.6818 -54.35075,48.1178 l -11.63366,4.22279 -311.38477,-0.36449 C 294.83807,607.87862 134.69982,607.26657 110.23692,606.71899 Z M 618.06215,464.27098 C 562.71205,408.91414 516.5998,363.62217 515.59051,363.62217 c -1.00928,0 -19.77474,17.95357 -41.70098,39.89683 -34.33309,34.3597 -40.62516,39.89682 -45.33663,39.89682 -4.71858,0 -11.20111,-5.73446 -47.15147,-41.71032 -22.9244,-22.94067 -42.59733,-41.71031 -43.7176,-41.71031 -1.12026,0 -47.1985,45.4678 -102.39609,101.03954 -91.95866,92.58202 -99.98652,101.1435 -95.9065,102.28153 2.449,0.68309 133.7973,1.32335 291.88509,1.42276 l 287.43237,0.18077 z M 188.71262,445.688 c 63.58847,-63.58265 115.6154,-116.42545 115.6154,-117.42847 0,-1.00301 -57.14526,-58.94647 -126.98946,-128.76325 L 50.349099,72.556695 l 0.498389,233.940475 0.498389,233.94048 4.343726,6.98742 c 3.627178,5.83475 13.155078,13.83576 16.506161,13.86095 0.495811,0.004 52.928396,-52.01537 116.516856,-115.59802 z m 600.58469,111.24891 c 8.99907,-5.27382 14.57085,-14.68719 17.20855,-29.0734 2.2739,-12.40206 2.87468,-456.213561 0.61755,-456.213561 -0.74545,0 -59.50249,58.142831 -130.57116,129.206301 L 547.33646,330.06254 662.94102,445.67768 c 63.5825,63.58832 116.35131,115.61513 117.26402,115.61513 0.91271,0 5.00424,-1.96015 9.09227,-4.3559 z M 464.70129,349.60032 C 537.72586,278.00763 766.7685,48.851655 766.7685,47.383651 c 0,-1.583612 -672.877188,0.270646 -674.540561,1.858841 -1.051766,1.004228 189.710311,192.098788 270.529921,271.001438 49.88701,48.70374 62.05658,59.69967 66.07169,59.69967 3.92387,0 11.19597,-6.15133 35.87174,-30.34328 z"
     id="path877"
     inkscape:connector-curvature="0"
     transform="scale(0.75000002)" />
  <path
     style="opacity:1;fill:#f2ab27;fill-opacity:0;stroke:#f2ab27;stroke-width:0;stroke-miterlimit:4;stroke-dasharray:none;stroke-opacity:0"
     d="M 110.23692,606.71899 65.758916,605.72336 53.448921,599.65859 C 34.820893,590.48111 19.382599,575.02058 10.060617,556.20785 L 2.3815918,540.71076 V 304.68335 68.655955 L 10.066706,53.146906 C 19.219896,34.675183 32.197231,20.662377 47.773873,12.431053 71.232644,0.03449517 43.05722,0.91790989 413.01332,0.97930383 597.10576,1.0098539 757.68789,1.7589812 769.86251,2.6440311 c 19.88037,1.4452275 23.29862,2.2199115 33.54961,7.6033739 15.92383,8.362647 33.74952,26.550355 41.48031,42.322745 l 6.20345,12.65631 v 237.74231 237.74232 l -7.62701,15.39192 c -11.98718,24.19117 -28.35489,38.6818 -54.35075,48.1178 l -11.63366,4.22279 -311.38477,-0.36449 C 294.83807,607.87862 134.69982,607.26657 110.23692,606.71899 Z M 618.06215,464.27098 C 562.71205,408.91414 516.5998,363.62217 515.59051,363.62217 c -1.00928,0 -19.77474,17.95357 -41.70098,39.89683 -34.33309,34.3597 -40.62516,39.89682 -45.33663,39.89682 -4.71858,0 -11.20111,-5.73446 -47.15147,-41.71032 -22.9244,-22.94067 -42.59733,-41.71031 -43.7176,-41.71031 -1.12026,0 -47.1985,45.4678 -102.39609,101.03954 -91.95866,92.58202 -99.98652,101.1435 -95.9065,102.28153 2.449,0.68309 133.7973,1.32335 291.88509,1.42276 l 287.43237,0.18077 z M 188.71262,445.688 c 63.58847,-63.58265 115.6154,-116.42545 115.6154,-117.42847 0,-1.00301 -57.14526,-58.94647 -126.98946,-128.76325 L 50.349099,72.556695 l 0.498389,233.940475 0.498389,233.94048 4.343726,6.98742 c 3.627178,5.83475 13.155078,13.83576 16.506161,13.86095 0.495811,0.004 52.928396,-52.01537 116.516856,-115.59802 z m 600.58469,111.24891 c 8.99907,-5.27382 14.57085,-14.68719 17.20855,-29.0734 2.2739,-12.40206 2.87468,-456.213561 0.61755,-456.213561 -0.74545,0 -59.50249,58.142831 -130.57116,129.206301 L 547.33646,330.06254 662.94102,445.67768 c 63.5825,63.58832 116.35131,115.61513 117.26402,115.61513 0.91271,0 5.00424,-1.96015 9.09227,-4.3559 z M 464.70129,349.60032 C 537.72586,278.00763 766.7685,48.851655 766.7685,47.383651 c 0,-1.583612 -672.877188,0.270646 -674.540561,1.858841 -1.051766,1.004228 189.710311,192.098788 270.529921,271.001438 49.88701,48.70374 62.05658,59.69967 66.07169,59.69967 3.92387,0 11.19597,-6.15133 35.87174,-30.34328 z"
     id="path879"
     inkscape:connector-curvature="0"
     transform="scale(0.75000002)" />
  <path
     style="opacity:1;fill:#f2ab27;fill-opacity:0;stroke:#f2ab27;stroke-width:0;stroke-miterlimit:4;stroke-dasharray:none;stroke-opacity:0"
     d="M 110.23692,606.71899 65.758916,605.72336 53.448921,599.65859 C 34.820893,590.48111 19.382599,575.02058 10.060617,556.20785 L 2.3815918,540.71076 V 304.68335 68.655955 L 10.066706,53.146906 C 19.219896,34.675183 32.197231,20.662377 47.773873,12.431053 71.232644,0.03449517 43.05722,0.91790989 413.01332,0.97930383 597.10576,1.0098539 757.68789,1.7589812 769.86251,2.6440311 c 19.88037,1.4452275 23.29862,2.2199115 33.54961,7.6033739 15.92383,8.362647 33.74952,26.550355 41.48031,42.322745 l 6.20345,12.65631 v 237.74231 237.74232 l -7.62701,15.39192 c -11.98718,24.19117 -28.35489,38.6818 -54.35075,48.1178 l -11.63366,4.22279 -311.38477,-0.36449 C 294.83807,607.87862 134.69982,607.26657 110.23692,606.71899 Z M 618.06215,464.27098 C 562.71205,408.91414 516.5998,363.62217 515.59051,363.62217 c -1.00928,0 -19.77474,17.95357 -41.70098,39.89683 -34.33309,34.3597 -40.62516,39.89682 -45.33663,39.89682 -4.71858,0 -11.20111,-5.73446 -47.15147,-41.71032 -22.9244,-22.94067 -42.59733,-41.71031 -43.7176,-41.71031 -1.12026,0 -47.1985,45.4678 -102.39609,101.03954 -91.95866,92.58202 -99.98652,101.1435 -95.9065,102.28153 2.449,0.68309 133.7973,1.32335 291.88509,1.42276 l 287.43237,0.18077 z M 188.71262,445.688 c 63.58847,-63.58265 115.6154,-116.42545 115.6154,-117.42847 0,-1.00301 -57.14526,-58.94647 -126.98946,-128.76325 L 50.349099,72.556695 l 0.498389,233.940475 0.498389,233.94048 4.343726,6.98742 c 3.627178,5.83475 13.155078,13.83576 16.506161,13.86095 0.495811,0.004 52.928396,-52.01537 116.516856,-115.59802 z m 600.58469,111.24891 c 8.99907,-5.27382 14.57085,-14.68719 17.20855,-29.0734 2.2739,-12.40206 2.87468,-456.213561 0.61755,-456.213561 -0.74545,0 -59.50249,58.142831 -130.57116,129.206301 L 547.33646,330.06254 662.94102,445.67768 c 63.5825,63.58832 116.35131,115.61513 117.26402,115.61513 0.91271,0 5.00424,-1.96015 9.09227,-4.3559 z M 464.70129,349.60032 C 537.72586,278.00763 766.7685,48.851655 766.7685,47.383651 c 0,-1.583612 -672.877188,0.270646 -674.540561,1.858841 -1.051766,1.004228 189.710311,192.098788 270.529921,271.001438 49.88701,48.70374 62.05658,59.69967 66.07169,59.69967 3.92387,0 11.19597,-6.15133 35.87174,-30.34328 z"
     id="path881"
     inkscape:connector-curvature="0"
     transform="scale(0.75000002)" />
  <path
     style="opacity:1;fill:#f2ab27;fill-opacity:0;stroke:#f2ab27;stroke-width:0;stroke-miterlimit:4;stroke-dasharray:none;stroke-opacity:0"
     d="M 110.23692,606.71899 65.758916,605.72336 53.448921,599.65859 C 34.820893,590.48111 19.382599,575.02058 10.060617,556.20785 L 2.3815918,540.71076 V 304.68335 68.655955 L 10.066706,53.146906 C 19.219896,34.675183 32.197231,20.662377 47.773873,12.431053 71.232644,0.03449517 43.05722,0.91790989 413.01332,0.97930383 597.10576,1.0098539 757.68789,1.7589812 769.86251,2.6440311 c 19.88037,1.4452275 23.29862,2.2199115 33.54961,7.6033739 15.92383,8.362647 33.74952,26.550355 41.48031,42.322745 l 6.20345,12.65631 v 237.74231 237.74232 l -7.62701,15.39192 c -11.98718,24.19117 -28.35489,38.6818 -54.35075,48.1178 l -11.63366,4.22279 -311.38477,-0.36449 C 294.83807,607.87862 134.69982,607.26657 110.23692,606.71899 Z M 618.06215,464.27098 C 562.71205,408.91414 516.5998,363.62217 515.59051,363.62217 c -1.00928,0 -19.77474,17.95357 -41.70098,39.89683 -34.33309,34.3597 -40.62516,39.89682 -45.33663,39.89682 -4.71858,0 -11.20111,-5.73446 -47.15147,-41.71032 -22.9244,-22.94067 -42.59733,-41.71031 -43.7176,-41.71031 -1.12026,0 -47.1985,45.4678 -102.39609,101.03954 -91.95866,92.58202 -99.98652,101.1435 -95.9065,102.28153 2.449,0.68309 133.7973,1.32335 291.88509,1.42276 l 287.43237,0.18077 z M 188.71262,445.688 c 63.58847,-63.58265 115.6154,-116.42545 115.6154,-117.42847 0,-1.00301 -57.14526,-58.94647 -126.98946,-128.76325 L 50.349099,72.556695 l 0.498389,233.940475 0.498389,233.94048 4.343726,6.98742 c 3.627178,5.83475 13.155078,13.83576 16.506161,13.86095 0.495811,0.004 52.928396,-52.01537 116.516856,-115.59802 z m 600.58469,111.24891 c 8.99907,-5.27382 14.57085,-14.68719 17.20855,-29.0734 2.2739,-12.40206 2.87468,-456.213561 0.61755,-456.213561 -0.74545,0 -59.50249,58.142831 -130.57116,129.206301 L 547.33646,330.06254 662.94102,445.67768 c 63.5825,63.58832 116.35131,115.61513 117.26402,115.61513 0.91271,0 5.00424,-1.96015 9.09227,-4.3559 z M 464.70129,349.60032 C 537.72586,278.00763 766.7685,48.851655 766.7685,47.383651 c 0,-1.583612 -672.877188,0.270646 -674.540561,1.858841 -1.051766,1.004228 189.710311,192.098788 270.529921,271.001438 49.88701,48.70374 62.05658,59.69967 66.07169,59.69967 3.92387,0 11.19597,-6.15133 35.87174,-30.34328 z"
     id="path883"
     inkscape:connector-curvature="0"
     transform="scale(0.75000002)" />
  <path
     style="opacity:1;fill:#f2ab27;fill-opacity:0;stroke:#f2ab27;stroke-width:0;stroke-miterlimit:4;stroke-dasharray:none;stroke-opacity:0"
     d="M 110.23692,606.71899 65.758916,605.72336 53.448921,599.65859 C 34.820893,590.48111 19.382599,575.02058 10.060617,556.20785 L 2.3815918,540.71076 V 304.68335 68.655955 L 10.066706,53.146906 C 19.219896,34.675183 32.197231,20.662377 47.773873,12.431053 71.232644,0.03449517 43.05722,0.91790989 413.01332,0.97930383 597.10576,1.0098539 757.68789,1.7589812 769.86251,2.6440311 c 19.88037,1.4452275 23.29862,2.2199115 33.54961,7.6033739 15.92383,8.362647 33.74952,26.550355 41.48031,42.322745 l 6.20345,12.65631 v 237.74231 237.74232 l -7.62701,15.39192 c -11.98718,24.19117 -28.35489,38.6818 -54.35075,48.1178 l -11.63366,4.22279 -311.38477,-0.36449 C 294.83807,607.87862 134.69982,607.26657 110.23692,606.71899 Z M 618.06215,464.27098 C 562.71205,408.91414 516.5998,363.62217 515.59051,363.62217 c -1.00928,0 -19.77474,17.95357 -41.70098,39.89683 -34.33309,34.3597 -40.62516,39.89682 -45.33663,39.89682 -4.71858,0 -11.20111,-5.73446 -47.15147,-41.71032 -22.9244,-22.94067 -42.59733,-41.71031 -43.7176,-41.71031 -1.12026,0 -47.1985,45.4678 -102.39609,101.03954 -91.95866,92.58202 -99.98652,101.1435 -95.9065,102.28153 2.449,0.68309 133.7973,1.32335 291.88509,1.42276 l 287.43237,0.18077 z M 188.71262,445.688 c 63.58847,-63.58265 115.6154,-116.42545 115.6154,-117.42847 0,-1.00301 -57.14526,-58.94647 -126.98946,-128.76325 L 50.349099,72.556695 l 0.498389,233.940475 0.498389,233.94048 4.343726,6.98742 c 3.627178,5.83475 13.155078,13.83576 16.506161,13.86095 0.495811,0.004 52.928396,-52.01537 116.516856,-115.59802 z m 600.58469,111.24891 c 8.99907,-5.27382 14.57085,-14.68719 17.20855,-29.0734 2.2739,-12.40206 2.87468,-456.213561 0.61755,-456.213561 -0.74545,0 -59.50249,58.142831 -130.57116,129.206301 L 547.33646,330.06254 662.94102,445.67768 c 63.5825,63.58832 116.35131,115.61513 117.26402,115.61513 0.91271,0 5.00424,-1.96015 9.09227,-4.3559 z M 464.70129,349.60032 C 537.72586,278.00763 766.7685,48.851655 766.7685,47.383651 c 0,-1.583612 -672.877188,0.270646 -674.540561,1.858841 -1.051766,1.004228 189.710311,192.098788 270.529921,271.001438 49.88701,48.70374 62.05658,59.69967 66.07169,59.69967 3.92387,0 11.19597,-6.15133 35.87174,-30.34328 z"
     id="path885"
     inkscape:connector-curvature="0"
     transform="scale(0.75000002)" />
  <path
     style="opacity:1;fill:#f2ab27;fill-opacity:0;stroke:#f2ab27;stroke-width:0;stroke-miterlimit:4;stroke-dasharray:none;stroke-opacity:0"
     d="M 110.23692,606.71899 65.758916,605.72336 53.448921,599.65859 C 34.820893,590.48111 19.382599,575.02058 10.060617,556.20785 L 2.3815918,540.71076 V 304.68335 68.655955 L 10.066706,53.146906 C 19.219896,34.675183 32.197231,20.662377 47.773873,12.431053 71.232644,0.03449517 43.05722,0.91790989 413.01332,0.97930383 597.10576,1.0098539 757.68789,1.7589812 769.86251,2.6440311 c 19.88037,1.4452275 23.29862,2.2199115 33.54961,7.6033739 15.92383,8.362647 33.74952,26.550355 41.48031,42.322745 l 6.20345,12.65631 v 237.74231 237.74232 l -7.62701,15.39192 c -11.98718,24.19117 -28.35489,38.6818 -54.35075,48.1178 l -11.63366,4.22279 -311.38477,-0.36449 C 294.83807,607.87862 134.69982,607.26657 110.23692,606.71899 Z M 618.06215,464.27098 C 562.71205,408.91414 516.5998,363.62217 515.59051,363.62217 c -1.00928,0 -19.77474,17.95357 -41.70098,39.89683 -34.33309,34.3597 -40.62516,39.89682 -45.33663,39.89682 -4.71858,0 -11.20111,-5.73446 -47.15147,-41.71032 -22.9244,-22.94067 -42.59733,-41.71031 -43.7176,-41.71031 -1.12026,0 -47.1985,45.4678 -102.39609,101.03954 -91.95866,92.58202 -99.98652,101.1435 -95.9065,102.28153 2.449,0.68309 133.7973,1.32335 291.88509,1.42276 l 287.43237,0.18077 z M 188.71262,445.688 c 63.58847,-63.58265 115.6154,-116.42545 115.6154,-117.42847 0,-1.00301 -57.14526,-58.94647 -126.98946,-128.76325 L 50.349099,72.556695 l 0.498389,233.940475 0.498389,233.94048 4.343726,6.98742 c 3.627178,5.83475 13.155078,13.83576 16.506161,13.86095 0.495811,0.004 52.928396,-52.01537 116.516856,-115.59802 z m 600.58469,111.24891 c 8.99907,-5.27382 14.57085,-14.68719 17.20855,-29.0734 2.2739,-12.40206 2.87468,-456.213561 0.61755,-456.213561 -0.74545,0 -59.50249,58.142831 -130.57116,129.206301 L 547.33646,330.06254 662.94102,445.67768 c 63.5825,63.58832 116.35131,115.61513 117.26402,115.61513 0.91271,0 5.00424,-1.96015 9.09227,-4.3559 z M 464.70129,349.60032 C 537.72586,278.00763 766.7685,48.851655 766.7685,47.383651 c 0,-1.583612 -672.877188,0.270646 -674.540561,1.858841 -1.051766,1.004228 189.710311,192.098788 270.529921,271.001438 49.88701,48.70374 62.05658,59.69967 66.07169,59.69967 3.92387,0 11.19597,-6.15133 35.87174,-30.34328 z"
     id="path887"
     inkscape:connector-curvature="0"
     transform="scale(0.75000002)" />
  <path
     style="opacity:1;fill:#f2ab27;fill-opacity:0;stroke:#f2ab27;stroke-width:0;stroke-miterlimit:4;stroke-dasharray:none;stroke-opacity:0"
     d="M 110.23692,606.71899 65.758916,605.72336 53.448921,599.65859 C 34.820893,590.48111 19.382599,575.02058 10.060617,556.20785 L 2.3815918,540.71076 V 304.68335 68.655955 L 10.066706,53.146906 C 19.219896,34.675183 32.197231,20.662377 47.773873,12.431053 71.232644,0.03449517 43.05722,0.91790989 413.01332,0.97930383 597.10576,1.0098539 757.68789,1.7589812 769.86251,2.6440311 c 19.88037,1.4452275 23.29862,2.2199115 33.54961,7.6033739 15.92383,8.362647 33.74952,26.550355 41.48031,42.322745 l 6.20345,12.65631 v 237.74231 237.74232 l -7.62701,15.39192 c -11.98718,24.19117 -28.35489,38.6818 -54.35075,48.1178 l -11.63366,4.22279 -311.38477,-0.36449 C 294.83807,607.87862 134.69982,607.26657 110.23692,606.71899 Z M 618.06215,464.27098 C 562.71205,408.91414 516.5998,363.62217 515.59051,363.62217 c -1.00928,0 -19.77474,17.95357 -41.70098,39.89683 -34.33309,34.3597 -40.62516,39.89682 -45.33663,39.89682 -4.71858,0 -11.20111,-5.73446 -47.15147,-41.71032 -22.9244,-22.94067 -42.59733,-41.71031 -43.7176,-41.71031 -1.12026,0 -47.1985,45.4678 -102.39609,101.03954 -91.95866,92.58202 -99.98652,101.1435 -95.9065,102.28153 2.449,0.68309 133.7973,1.32335 291.88509,1.42276 l 287.43237,0.18077 z M 188.71262,445.688 c 63.58847,-63.58265 115.6154,-116.42545 115.6154,-117.42847 0,-1.00301 -57.14526,-58.94647 -126.98946,-128.76325 L 50.349099,72.556695 l 0.498389,233.940475 0.498389,233.94048 4.343726,6.98742 c 3.627178,5.83475 13.155078,13.83576 16.506161,13.86095 0.495811,0.004 52.928396,-52.01537 116.516856,-115.59802 z m 600.58469,111.24891 c 8.99907,-5.27382 14.57085,-14.68719 17.20855,-29.0734 2.2739,-12.40206 2.87468,-456.213561 0.61755,-456.213561 -0.74545,0 -59.50249,58.142831 -130.57116,129.206301 L 547.33646,330.06254 662.94102,445.67768 c 63.5825,63.58832 116.35131,115.61513 117.26402,115.61513 0.91271,0 5.00424,-1.96015 9.09227,-4.3559 z M 464.70129,349.60032 C 537.72586,278.00763 766.7685,48.851655 766.7685,47.383651 c 0,-1.583612 -672.877188,0.270646 -674.540561,1.858841 -1.051766,1.004228 189.710311,192.098788 270.529921,271.001438 49.88701,48.70374 62.05658,59.69967 66.07169,59.69967 3.92387,0 11.19597,-6.15133 35.87174,-30.34328 z"
     id="path889"
     inkscape:connector-curvature="0"
     transform="scale(0.75000002)" />
  <path
     style="opacity:1;fill:#f2ab27;fill-opacity:0;stroke:#f2ab27;stroke-width:0;stroke-miterlimit:4;stroke-dasharray:none;stroke-opacity:0"
     d="M 110.23692,606.71899 65.758916,605.72336 53.448921,599.65859 C 34.820893,590.48111 19.382599,575.02058 10.060617,556.20785 L 2.3815918,540.71076 V 304.68335 68.655955 L 10.066706,53.146906 C 19.219896,34.675183 32.197231,20.662377 47.773873,12.431053 71.232644,0.03449517 43.05722,0.91790989 413.01332,0.97930383 597.10576,1.0098539 757.68789,1.7589812 769.86251,2.6440311 c 19.88037,1.4452275 23.29862,2.2199115 33.54961,7.6033739 15.92383,8.362647 33.74952,26.550355 41.48031,42.322745 l 6.20345,12.65631 v 237.74231 237.74232 l -7.62701,15.39192 c -11.98718,24.19117 -28.35489,38.6818 -54.35075,48.1178 l -11.63366,4.22279 -311.38477,-0.36449 C 294.83807,607.87862 134.69982,607.26657 110.23692,606.71899 Z M 618.06215,464.27098 C 562.71205,408.91414 516.5998,363.62217 515.59051,363.62217 c -1.00928,0 -19.77474,17.95357 -41.70098,39.89683 -34.33309,34.3597 -40.62516,39.89682 -45.33663,39.89682 -4.71858,0 -11.20111,-5.73446 -47.15147,-41.71032 -22.9244,-22.94067 -42.59733,-41.71031 -43.7176,-41.71031 -1.12026,0 -47.1985,45.4678 -102.39609,101.03954 -91.95866,92.58202 -99.98652,101.1435 -95.9065,102.28153 2.449,0.68309 133.7973,1.32335 291.88509,1.42276 l 287.43237,0.18077 z M 188.71262,445.688 c 63.58847,-63.58265 115.6154,-116.42545 115.6154,-117.42847 0,-1.00301 -57.14526,-58.94647 -126.98946,-128.76325 L 50.349099,72.556695 l 0.498389,233.940475 0.498389,233.94048 4.343726,6.98742 c 3.627178,5.83475 13.155078,13.83576 16.506161,13.86095 0.495811,0.004 52.928396,-52.01537 116.516856,-115.59802 z m 600.58469,111.24891 c 8.99907,-5.27382 14.57085,-14.68719 17.20855,-29.0734 2.2739,-12.40206 2.87468,-456.213561 0.61755,-456.213561 -0.74545,0 -59.50249,58.142831 -130.57116,129.206301 L 547.33646,330.06254 662.94102,445.67768 c 63.5825,63.58832 116.35131,115.61513 117.26402,115.61513 0.91271,0 5.00424,-1.96015 9.09227,-4.3559 z M 464.70129,349.60032 C 537.72586,278.00763 766.7685,48.851655 766.7685,47.383651 c 0,-1.583612 -672.877188,0.270646 -674.540561,1.858841 -1.051766,1.004228 189.710311,192.098788 270.529921,271.001438 49.88701,48.70374 62.05658,59.69967 66.07169,59.69967 3.92387,0 11.19597,-6.15133 35.87174,-30.34328 z"
     id="path891"
     inkscape:connector-curvature="0"
     transform="scale(0.75000002)" />
  <path
     style="opacity:1;fill:#f2ab27;fill-opacity:0;stroke:#f2ab27;stroke-width:0;stroke-miterlimit:4;stroke-dasharray:none;stroke-opacity:0"
     d="M 110.23692,606.71899 65.758916,605.72336 53.448921,599.65859 C 34.820893,590.48111 19.382599,575.02058 10.060617,556.20785 L 2.3815918,540.71076 V 304.68335 68.655955 L 10.066706,53.146906 C 19.219896,34.675183 32.197231,20.662377 47.773873,12.431053 71.232644,0.03449517 43.05722,0.91790989 413.01332,0.97930383 597.10576,1.0098539 757.68789,1.7589812 769.86251,2.6440311 c 19.88037,1.4452275 23.29862,2.2199115 33.54961,7.6033739 15.92383,8.362647 33.74952,26.550355 41.48031,42.322745 l 6.20345,12.65631 v 237.74231 237.74232 l -7.62701,15.39192 c -11.98718,24.19117 -28.35489,38.6818 -54.35075,48.1178 l -11.63366,4.22279 -311.38477,-0.36449 C 294.83807,607.87862 134.69982,607.26657 110.23692,606.71899 Z M 618.06215,464.27098 C 562.71205,408.91414 516.5998,363.62217 515.59051,363.62217 c -1.00928,0 -19.77474,17.95357 -41.70098,39.89683 -34.33309,34.3597 -40.62516,39.89682 -45.33663,39.89682 -4.71858,0 -11.20111,-5.73446 -47.15147,-41.71032 -22.9244,-22.94067 -42.59733,-41.71031 -43.7176,-41.71031 -1.12026,0 -47.1985,45.4678 -102.39609,101.03954 -91.95866,92.58202 -99.98652,101.1435 -95.9065,102.28153 2.449,0.68309 133.7973,1.32335 291.88509,1.42276 l 287.43237,0.18077 z M 188.71262,445.688 c 63.58847,-63.58265 115.6154,-116.42545 115.6154,-117.42847 0,-1.00301 -57.14526,-58.94647 -126.98946,-128.76325 L 50.349099,72.556695 l 0.498389,233.940475 0.498389,233.94048 4.343726,6.98742 c 3.627178,5.83475 13.155078,13.83576 16.506161,13.86095 0.495811,0.004 52.928396,-52.01537 116.516856,-115.59802 z m 600.58469,111.24891 c 8.99907,-5.27382 14.57085,-14.68719 17.20855,-29.0734 2.2739,-12.40206 2.87468,-456.213561 0.61755,-456.213561 -0.74545,0 -59.50249,58.142831 -130.57116,129.206301 L 547.33646,330.06254 662.94102,445.67768 c 63.5825,63.58832 116.35131,115.61513 117.26402,115.61513 0.91271,0 5.00424,-1.96015 9.09227,-4.3559 z M 464.70129,349.60032 C 537.72586,278.00763 766.7685,48.851655 766.7685,47.383651 c 0,-1.583612 -672.877188,0.270646 -674.540561,1.858841 -1.051766,1.004228 189.710311,192.098788 270.529921,271.001438 49.88701,48.70374 62.05658,59.69967 66.07169,59.69967 3.92387,0 11.19597,-6.15133 35.87174,-30.34328 z"
     id="path893"
     inkscape:connector-curvature="0"
     transform="scale(0.75000002)" />
  <path
     style="opacity:1;fill:#f2ab27;fill-opacity:0;stroke:#f2ab27;stroke-width:0;stroke-miterlimit:4;stroke-dasharray:none;stroke-opacity:0"
     d="M 110.23692,606.71899 65.758916,605.72336 53.448921,599.65859 C 34.820893,590.48111 19.382599,575.02058 10.060617,556.20785 L 2.3815918,540.71076 V 304.68335 68.655955 L 10.066706,53.146906 C 19.219896,34.675183 32.197231,20.662377 47.773873,12.431053 71.232644,0.03449517 43.05722,0.91790989 413.01332,0.97930383 597.10576,1.0098539 757.68789,1.7589812 769.86251,2.6440311 c 19.88037,1.4452275 23.29862,2.2199115 33.54961,7.6033739 15.92383,8.362647 33.74952,26.550355 41.48031,42.322745 l 6.20345,12.65631 v 237.74231 237.74232 l -7.62701,15.39192 c -11.98718,24.19117 -28.35489,38.6818 -54.35075,48.1178 l -11.63366,4.22279 -311.38477,-0.36449 C 294.83807,607.87862 134.69982,607.26657 110.23692,606.71899 Z M 618.06215,464.27098 C 562.71205,408.91414 516.5998,363.62217 515.59051,363.62217 c -1.00928,0 -19.77474,17.95357 -41.70098,39.89683 -34.33309,34.3597 -40.62516,39.89682 -45.33663,39.89682 -4.71858,0 -11.20111,-5.73446 -47.15147,-41.71032 -22.9244,-22.94067 -42.59733,-41.71031 -43.7176,-41.71031 -1.12026,0 -47.1985,45.4678 -102.39609,101.03954 -91.95866,92.58202 -99.98652,101.1435 -95.9065,102.28153 2.449,0.68309 133.7973,1.32335 291.88509,1.42276 l 287.43237,0.18077 z M 188.71262,445.688 c 63.58847,-63.58265 115.6154,-116.42545 115.6154,-117.42847 0,-1.00301 -57.14526,-58.94647 -126.98946,-128.76325 L 50.349099,72.556695 l 0.498389,233.940475 0.498389,233.94048 4.343726,6.98742 c 3.627178,5.83475 13.155078,13.83576 16.506161,13.86095 0.495811,0.004 52.928396,-52.01537 116.516856,-115.59802 z m 600.58469,111.24891 c 8.99907,-5.27382 14.57085,-14.68719 17.20855,-29.0734 2.2739,-12.40206 2.87468,-456.213561 0.61755,-456.213561 -0.74545,0 -59.50249,58.142831 -130.57116,129.206301 L 547.33646,330.06254 662.94102,445.67768 c 63.5825,63.58832 116.35131,115.61513 117.26402,115.61513 0.91271,0 5.00424,-1.96015 9.09227,-4.3559 z M 464.70129,349.60032 C 537.72586,278.00763 766.7685,48.851655 766.7685,47.383651 c 0,-1.583612 -672.877188,0.270646 -674.540561,1.858841 -1.051766,1.004228 189.710311,192.098788 270.529921,271.001438 49.88701,48.70374 62.05658,59.69967 66.07169,59.69967 3.92387,0 11.19597,-6.15133 35.87174,-30.34328 z"
     id="path895"
     inkscape:connector-curvature="0"
     transform="scale(0.75000002)" />
  <path
     style="opacity:1;fill:#f2ab27;fill-opacity:0;stroke:#f2ab27;stroke-width:0;stroke-miterlimit:4;stroke-dasharray:none;stroke-opacity:0"
     d="M 110.23692,606.71899 65.758916,605.72336 53.448921,599.65859 C 34.820893,590.48111 19.382599,575.02058 10.060617,556.20785 L 2.3815918,540.71076 V 304.68335 68.655955 L 10.066706,53.146906 C 19.219896,34.675183 32.197231,20.662377 47.773873,12.431053 71.232644,0.03449517 43.05722,0.91790989 413.01332,0.97930383 597.10576,1.0098539 757.68789,1.7589812 769.86251,2.6440311 c 19.88037,1.4452275 23.29862,2.2199115 33.54961,7.6033739 15.92383,8.362647 33.74952,26.550355 41.48031,42.322745 l 6.20345,12.65631 v 237.74231 237.74232 l -7.62701,15.39192 c -11.98718,24.19117 -28.35489,38.6818 -54.35075,48.1178 l -11.63366,4.22279 -311.38477,-0.36449 C 294.83807,607.87862 134.69982,607.26657 110.23692,606.71899 Z M 618.06215,464.27098 C 562.71205,408.91414 516.5998,363.62217 515.59051,363.62217 c -1.00928,0 -19.77474,17.95357 -41.70098,39.89683 -34.33309,34.3597 -40.62516,39.89682 -45.33663,39.89682 -4.71858,0 -11.20111,-5.73446 -47.15147,-41.71032 -22.9244,-22.94067 -42.59733,-41.71031 -43.7176,-41.71031 -1.12026,0 -47.1985,45.4678 -102.39609,101.03954 -91.95866,92.58202 -99.98652,101.1435 -95.9065,102.28153 2.449,0.68309 133.7973,1.32335 291.88509,1.42276 l 287.43237,0.18077 z M 188.71262,445.688 c 63.58847,-63.58265 115.6154,-116.42545 115.6154,-117.42847 0,-1.00301 -57.14526,-58.94647 -126.98946,-128.76325 L 50.349099,72.556695 l 0.498389,233.940475 0.498389,233.94048 4.343726,6.98742 c 3.627178,5.83475 13.155078,13.83576 16.506161,13.86095 0.495811,0.004 52.928396,-52.01537 116.516856,-115.59802 z m 600.58469,111.24891 c 8.99907,-5.27382 14.57085,-14.68719 17.20855,-29.0734 2.2739,-12.40206 2.87468,-456.213561 0.61755,-456.213561 -0.74545,0 -59.50249,58.142831 -130.57116,129.206301 L 547.33646,330.06254 662.94102,445.67768 c 63.5825,63.58832 116.35131,115.61513 117.26402,115.61513 0.91271,0 5.00424,-1.96015 9.09227,-4.3559 z M 464.70129,349.60032 C 537.72586,278.00763 766.7685,48.851655 766.7685,47.383651 c 0,-1.583612 -672.877188,0.270646 -674.540561,1.858841 -1.051766,1.004228 189.710311,192.098788 270.529921,271.001438 49.88701,48.70374 62.05658,59.69967 66.07169,59.69967 3.92387,0 11.19597,-6.15133 35.87174,-30.34328 z"
     id="path897"
     inkscape:connector-curvature="0"
     transform="scale(0.75000002)" />
  <path
     style="opacity:1;fill:#f2ab27;fill-opacity:0;stroke:#f2ab27;stroke-width:0;stroke-miterlimit:4;stroke-dasharray:none;stroke-opacity:0"
     d="M 110.23692,606.71899 65.758916,605.72336 53.448921,599.65859 C 34.820893,590.48111 19.382599,575.02058 10.060617,556.20785 L 2.3815918,540.71076 V 304.68335 68.655955 L 10.066706,53.146906 C 19.219896,34.675183 32.197231,20.662377 47.773873,12.431053 71.232644,0.03449517 43.05722,0.91790989 413.01332,0.97930383 597.10576,1.0098539 757.68789,1.7589812 769.86251,2.6440311 c 19.88037,1.4452275 23.29862,2.2199115 33.54961,7.6033739 15.92383,8.362647 33.74952,26.550355 41.48031,42.322745 l 6.20345,12.65631 v 237.74231 237.74232 l -7.62701,15.39192 c -11.98718,24.19117 -28.35489,38.6818 -54.35075,48.1178 l -11.63366,4.22279 -311.38477,-0.36449 C 294.83807,607.87862 134.69982,607.26657 110.23692,606.71899 Z M 618.06215,464.27098 C 562.71205,408.91414 516.5998,363.62217 515.59051,363.62217 c -1.00928,0 -19.77474,17.95357 -41.70098,39.89683 -34.33309,34.3597 -40.62516,39.89682 -45.33663,39.89682 -4.71858,0 -11.20111,-5.73446 -47.15147,-41.71032 -22.9244,-22.94067 -42.59733,-41.71031 -43.7176,-41.71031 -1.12026,0 -47.1985,45.4678 -102.39609,101.03954 -91.95866,92.58202 -99.98652,101.1435 -95.9065,102.28153 2.449,0.68309 133.7973,1.32335 291.88509,1.42276 l 287.43237,0.18077 z M 188.71262,445.688 c 63.58847,-63.58265 115.6154,-116.42545 115.6154,-117.42847 0,-1.00301 -57.14526,-58.94647 -126.98946,-128.76325 L 50.349099,72.556695 l 0.498389,233.940475 0.498389,233.94048 4.343726,6.98742 c 3.627178,5.83475 13.155078,13.83576 16.506161,13.86095 0.495811,0.004 52.928396,-52.01537 116.516856,-115.59802 z m 600.58469,111.24891 c 8.99907,-5.27382 14.57085,-14.68719 17.20855,-29.0734 2.2739,-12.40206 2.87468,-456.213561 0.61755,-456.213561 -0.74545,0 -59.50249,58.142831 -130.57116,129.206301 L 547.33646,330.06254 662.94102,445.67768 c 63.5825,63.58832 116.35131,115.61513 117.26402,115.61513 0.91271,0 5.00424,-1.96015 9.09227,-4.3559 z M 464.70129,349.60032 C 537.72586,278.00763 766.7685,48.851655 766.7685,47.383651 c 0,-1.583612 -672.877188,0.270646 -674.540561,1.858841 -1.051766,1.004228 189.710311,192.098788 270.529921,271.001438 49.88701,48.70374 62.05658,59.69967 66.07169,59.69967 3.92387,0 11.19597,-6.15133 35.87174,-30.34328 z"
     id="path899"
     inkscape:connector-curvature="0"
     transform="scale(0.75000002)" />
  <path
     style="opacity:1;fill:#f2ab27;fill-opacity:0;stroke:#f2ab27;stroke-width:0;stroke-miterlimit:4;stroke-dasharray:none;stroke-opacity:0"
     d="M 110.23692,606.71899 65.758916,605.72336 53.448921,599.65859 C 34.820893,590.48111 19.382599,575.02058 10.060617,556.20785 L 2.3815918,540.71076 V 304.68335 68.655955 L 10.066706,53.146906 C 19.219896,34.675183 32.197231,20.662377 47.773873,12.431053 71.232644,0.03449517 43.05722,0.91790989 413.01332,0.97930383 597.10576,1.0098539 757.68789,1.7589812 769.86251,2.6440311 c 19.88037,1.4452275 23.29862,2.2199115 33.54961,7.6033739 15.92383,8.362647 33.74952,26.550355 41.48031,42.322745 l 6.20345,12.65631 v 237.74231 237.74232 l -7.62701,15.39192 c -11.98718,24.19117 -28.35489,38.6818 -54.35075,48.1178 l -11.63366,4.22279 -311.38477,-0.36449 C 294.83807,607.87862 134.69982,607.26657 110.23692,606.71899 Z M 618.06215,464.27098 C 562.71205,408.91414 516.5998,363.62217 515.59051,363.62217 c -1.00928,0 -19.77474,17.95357 -41.70098,39.89683 -34.33309,34.3597 -40.62516,39.89682 -45.33663,39.89682 -4.71858,0 -11.20111,-5.73446 -47.15147,-41.71032 -22.9244,-22.94067 -42.59733,-41.71031 -43.7176,-41.71031 -1.12026,0 -47.1985,45.4678 -102.39609,101.03954 -91.95866,92.58202 -99.98652,101.1435 -95.9065,102.28153 2.449,0.68309 133.7973,1.32335 291.88509,1.42276 l 287.43237,0.18077 z M 188.71262,445.688 c 63.58847,-63.58265 115.6154,-116.42545 115.6154,-117.42847 0,-1.00301 -57.14526,-58.94647 -126.98946,-128.76325 L 50.349099,72.556695 l 0.498389,233.940475 0.498389,233.94048 4.343726,6.98742 c 3.627178,5.83475 13.155078,13.83576 16.506161,13.86095 0.495811,0.004 52.928396,-52.01537 116.516856,-115.59802 z m 600.58469,111.24891 c 8.99907,-5.27382 14.57085,-14.68719 17.20855,-29.0734 2.2739,-12.40206 2.87468,-456.213561 0.61755,-456.213561 -0.74545,0 -59.50249,58.142831 -130.57116,129.206301 L 547.33646,330.06254 662.94102,445.67768 c 63.5825,63.58832 116.35131,115.61513 117.26402,115.61513 0.91271,0 5.00424,-1.96015 9.09227,-4.3559 z M 464.70129,349.60032 C 537.72586,278.00763 766.7685,48.851655 766.7685,47.383651 c 0,-1.583612 -672.877188,0.270646 -674.540561,1.858841 -1.051766,1.004228 189.710311,192.098788 270.529921,271.001438 49.88701,48.70374 62.05658,59.69967 66.07169,59.69967 3.92387,0 11.19597,-6.15133 35.87174,-30.34328 z"
     id="path901"
     inkscape:connector-curvature="0"
     transform="scale(0.75000002)" />
  <path
     style="opacity:1;fill:#f2ab27;fill-opacity:0;stroke:#f2ab27;stroke-width:0;stroke-miterlimit:4;stroke-dasharray:none;stroke-opacity:0"
     d="M 110.23692,606.71899 65.758916,605.72336 53.448921,599.65859 C 34.820893,590.48111 19.382599,575.02058 10.060617,556.20785 L 2.3815918,540.71076 V 304.68335 68.655955 L 10.066706,53.146906 C 19.219896,34.675183 32.197231,20.662377 47.773873,12.431053 71.232644,0.03449517 43.05722,0.91790989 413.01332,0.97930383 597.10576,1.0098539 757.68789,1.7589812 769.86251,2.6440311 c 19.88037,1.4452275 23.29862,2.2199115 33.54961,7.6033739 15.92383,8.362647 33.74952,26.550355 41.48031,42.322745 l 6.20345,12.65631 v 237.74231 237.74232 l -7.62701,15.39192 c -11.98718,24.19117 -28.35489,38.6818 -54.35075,48.1178 l -11.63366,4.22279 -311.38477,-0.36449 C 294.83807,607.87862 134.69982,607.26657 110.23692,606.71899 Z M 618.06215,464.27098 C 562.71205,408.91414 516.5998,363.62217 515.59051,363.62217 c -1.00928,0 -19.77474,17.95357 -41.70098,39.89683 -34.33309,34.3597 -40.62516,39.89682 -45.33663,39.89682 -4.71858,0 -11.20111,-5.73446 -47.15147,-41.71032 -22.9244,-22.94067 -42.59733,-41.71031 -43.7176,-41.71031 -1.12026,0 -47.1985,45.4678 -102.39609,101.03954 -91.95866,92.58202 -99.98652,101.1435 -95.9065,102.28153 2.449,0.68309 133.7973,1.32335 291.88509,1.42276 l 287.43237,0.18077 z M 188.71262,445.688 c 63.58847,-63.58265 115.6154,-116.42545 115.6154,-117.42847 0,-1.00301 -57.14526,-58.94647 -126.98946,-128.76325 L 50.349099,72.556695 l 0.498389,233.940475 0.498389,233.94048 4.343726,6.98742 c 3.627178,5.83475 13.155078,13.83576 16.506161,13.86095 0.495811,0.004 52.928396,-52.01537 116.516856,-115.59802 z m 600.58469,111.24891 c 8.99907,-5.27382 14.57085,-14.68719 17.20855,-29.0734 2.2739,-12.40206 2.87468,-456.213561 0.61755,-456.213561 -0.74545,0 -59.50249,58.142831 -130.57116,129.206301 L 547.33646,330.06254 662.94102,445.67768 c 63.5825,63.58832 116.35131,115.61513 117.26402,115.61513 0.91271,0 5.00424,-1.96015 9.09227,-4.3559 z M 464.70129,349.60032 C 537.72586,278.00763 766.7685,48.851655 766.7685,47.383651 c 0,-1.583612 -672.877188,0.270646 -674.540561,1.858841 -1.051766,1.004228 189.710311,192.098788 270.529921,271.001438 49.88701,48.70374 62.05658,59.69967 66.07169,59.69967 3.92387,0 11.19597,-6.15133 35.87174,-30.34328 z"
     id="path903"
     inkscape:connector-curvature="0"
     transform="scale(0.75000002)" />
  <path
     style="opacity:1;fill:#f2ab27;fill-opacity:0;stroke:#f2ab27;stroke-width:0;stroke-miterlimit:4;stroke-dasharray:none;stroke-opacity:0"
     d="M 110.23692,606.71899 65.758916,605.72336 53.448921,599.65859 C 34.820893,590.48111 19.382599,575.02058 10.060617,556.20785 L 2.3815918,540.71076 V 304.68335 68.655955 L 10.066706,53.146906 C 19.219896,34.675183 32.197231,20.662377 47.773873,12.431053 71.232644,0.03449517 43.05722,0.91790989 413.01332,0.97930383 597.10576,1.0098539 757.68789,1.7589812 769.86251,2.6440311 c 19.88037,1.4452275 23.29862,2.2199115 33.54961,7.6033739 15.92383,8.362647 33.74952,26.550355 41.48031,42.322745 l 6.20345,12.65631 v 237.74231 237.74232 l -7.62701,15.39192 c -11.98718,24.19117 -28.35489,38.6818 -54.35075,48.1178 l -11.63366,4.22279 -311.38477,-0.36449 C 294.83807,607.87862 134.69982,607.26657 110.23692,606.71899 Z M 618.06215,464.27098 C 562.71205,408.91414 516.5998,363.62217 515.59051,363.62217 c -1.00928,0 -19.77474,17.95357 -41.70098,39.89683 -34.33309,34.3597 -40.62516,39.89682 -45.33663,39.89682 -4.71858,0 -11.20111,-5.73446 -47.15147,-41.71032 -22.9244,-22.94067 -42.59733,-41.71031 -43.7176,-41.71031 -1.12026,0 -47.1985,45.4678 -102.39609,101.03954 -91.95866,92.58202 -99.98652,101.1435 -95.9065,102.28153 2.449,0.68309 133.7973,1.32335 291.88509,1.42276 l 287.43237,0.18077 z M 188.71262,445.688 c 63.58847,-63.58265 115.6154,-116.42545 115.6154,-117.42847 0,-1.00301 -57.14526,-58.94647 -126.98946,-128.76325 L 50.349099,72.556695 l 0.498389,233.940475 0.498389,233.94048 4.343726,6.98742 c 3.627178,5.83475 13.155078,13.83576 16.506161,13.86095 0.495811,0.004 52.928396,-52.01537 116.516856,-115.59802 z m 600.58469,111.24891 c 8.99907,-5.27382 14.57085,-14.68719 17.20855,-29.0734 2.2739,-12.40206 2.87468,-456.213561 0.61755,-456.213561 -0.74545,0 -59.50249,58.142831 -130.57116,129.206301 L 547.33646,330.06254 662.94102,445.67768 c 63.5825,63.58832 116.35131,115.61513 117.26402,115.61513 0.91271,0 5.00424,-1.96015 9.09227,-4.3559 z M 464.70129,349.60032 C 537.72586,278.00763 766.7685,48.851655 766.7685,47.383651 c 0,-1.583612 -672.877188,0.270646 -674.540561,1.858841 -1.051766,1.004228 189.710311,192.098788 270.529921,271.001438 49.88701,48.70374 62.05658,59.69967 66.07169,59.69967 3.92387,0 11.19597,-6.15133 35.87174,-30.34328 z"
     id="path905"
     inkscape:connector-curvature="0"
     transform="scale(0.75000002)" />
  <path
     style="opacity:1;fill:#f2ab27;fill-opacity:0;stroke:#f2ab27;stroke-width:0;stroke-miterlimit:4;stroke-dasharray:none;stroke-opacity:0"
     d="M 110.23692,606.71899 65.758916,605.72336 53.448921,599.65859 C 34.820893,590.48111 19.382599,575.02058 10.060617,556.20785 L 2.3815918,540.71076 V 304.68335 68.655955 L 10.066706,53.146906 C 19.219896,34.675183 32.197231,20.662377 47.773873,12.431053 71.232644,0.03449517 43.05722,0.91790989 413.01332,0.97930383 597.10576,1.0098539 757.68789,1.7589812 769.86251,2.6440311 c 19.88037,1.4452275 23.29862,2.2199115 33.54961,7.6033739 15.92383,8.362647 33.74952,26.550355 41.48031,42.322745 l 6.20345,12.65631 v 237.74231 237.74232 l -7.62701,15.39192 c -11.98718,24.19117 -28.35489,38.6818 -54.35075,48.1178 l -11.63366,4.22279 -311.38477,-0.36449 C 294.83807,607.87862 134.69982,607.26657 110.23692,606.71899 Z M 618.06215,464.27098 C 562.71205,408.91414 516.5998,363.62217 515.59051,363.62217 c -1.00928,0 -19.77474,17.95357 -41.70098,39.89683 -34.33309,34.3597 -40.62516,39.89682 -45.33663,39.89682 -4.71858,0 -11.20111,-5.73446 -47.15147,-41.71032 -22.9244,-22.94067 -42.59733,-41.71031 -43.7176,-41.71031 -1.12026,0 -47.1985,45.4678 -102.39609,101.03954 -91.95866,92.58202 -99.98652,101.1435 -95.9065,102.28153 2.449,0.68309 133.7973,1.32335 291.88509,1.42276 l 287.43237,0.18077 z M 188.71262,445.688 c 63.58847,-63.58265 115.6154,-116.42545 115.6154,-117.42847 0,-1.00301 -57.14526,-58.94647 -126.98946,-128.76325 L 50.349099,72.556695 l 0.498389,233.940475 0.498389,233.94048 4.343726,6.98742 c 3.627178,5.83475 13.155078,13.83576 16.506161,13.86095 0.495811,0.004 52.928396,-52.01537 116.516856,-115.59802 z m 600.58469,111.24891 c 8.99907,-5.27382 14.57085,-14.68719 17.20855,-29.0734 2.2739,-12.40206 2.87468,-456.213561 0.61755,-456.213561 -0.74545,0 -59.50249,58.142831 -130.57116,129.206301 L 547.33646,330.06254 662.94102,445.67768 c 63.5825,63.58832 116.35131,115.61513 117.26402,115.61513 0.91271,0 5.00424,-1.96015 9.09227,-4.3559 z M 464.70129,349.60032 C 537.72586,278.00763 766.7685,48.851655 766.7685,47.383651 c 0,-1.583612 -672.877188,0.270646 -674.540561,1.858841 -1.051766,1.004228 189.710311,192.098788 270.529921,271.001438 49.88701,48.70374 62.05658,59.69967 66.07169,59.69967 3.92387,0 11.19597,-6.15133 35.87174,-30.34328 z"
     id="path907"
     inkscape:connector-curvature="0"
     transform="scale(0.75000002)" />
  <path
     style="opacity:1;fill:#f2ab27;fill-opacity:0;stroke:#f2ab27;stroke-width:0;stroke-miterlimit:4;stroke-dasharray:none;stroke-opacity:0"
     d="M 110.23692,606.71899 65.758916,605.72336 53.448921,599.65859 C 34.820893,590.48111 19.382599,575.02058 10.060617,556.20785 L 2.3815918,540.71076 V 304.68335 68.655955 L 10.066706,53.146906 C 19.219896,34.675183 32.197231,20.662377 47.773873,12.431053 71.232644,0.03449517 43.05722,0.91790989 413.01332,0.97930383 597.10576,1.0098539 757.68789,1.7589812 769.86251,2.6440311 c 19.88037,1.4452275 23.29862,2.2199115 33.54961,7.6033739 15.92383,8.362647 33.74952,26.550355 41.48031,42.322745 l 6.20345,12.65631 v 237.74231 237.74232 l -7.62701,15.39192 c -11.98718,24.19117 -28.35489,38.6818 -54.35075,48.1178 l -11.63366,4.22279 -311.38477,-0.36449 C 294.83807,607.87862 134.69982,607.26657 110.23692,606.71899 Z M 618.06215,464.27098 C 562.71205,408.91414 516.5998,363.62217 515.59051,363.62217 c -1.00928,0 -19.77474,17.95357 -41.70098,39.89683 -34.33309,34.3597 -40.62516,39.89682 -45.33663,39.89682 -4.71858,0 -11.20111,-5.73446 -47.15147,-41.71032 -22.9244,-22.94067 -42.59733,-41.71031 -43.7176,-41.71031 -1.12026,0 -47.1985,45.4678 -102.39609,101.03954 -91.95866,92.58202 -99.98652,101.1435 -95.9065,102.28153 2.449,0.68309 133.7973,1.32335 291.88509,1.42276 l 287.43237,0.18077 z M 188.71262,445.688 c 63.58847,-63.58265 115.6154,-116.42545 115.6154,-117.42847 0,-1.00301 -57.14526,-58.94647 -126.98946,-128.76325 L 50.349099,72.556695 l 0.498389,233.940475 0.498389,233.94048 4.343726,6.98742 c 3.627178,5.83475 13.155078,13.83576 16.506161,13.86095 0.495811,0.004 52.928396,-52.01537 116.516856,-115.59802 z m 600.58469,111.24891 c 8.99907,-5.27382 14.57085,-14.68719 17.20855,-29.0734 2.2739,-12.40206 2.87468,-456.213561 0.61755,-456.213561 -0.74545,0 -59.50249,58.142831 -130.57116,129.206301 L 547.33646,330.06254 662.94102,445.67768 c 63.5825,63.58832 116.35131,115.61513 117.26402,115.61513 0.91271,0 5.00424,-1.96015 9.09227,-4.3559 z M 464.70129,349.60032 C 537.72586,278.00763 766.7685,48.851655 766.7685,47.383651 c 0,-1.583612 -672.877188,0.270646 -674.540561,1.858841 -1.051766,1.004228 189.710311,192.098788 270.529921,271.001438 49.88701,48.70374 62.05658,59.69967 66.07169,59.69967 3.92387,0 11.19597,-6.15133 35.87174,-30.34328 z"
     id="path909"
     inkscape:connector-curvature="0"
     transform="scale(0.75000002)" />
  <path
     style="opacity:1;fill:#f2ab27;fill-opacity:0;stroke:#f2ab27;stroke-width:0;stroke-miterlimit:4;stroke-dasharray:none;stroke-opacity:0"
     d="M 110.23692,606.71899 65.758916,605.72336 53.448921,599.65859 C 34.820893,590.48111 19.382599,575.02058 10.060617,556.20785 L 2.3815918,540.71076 V 304.68335 68.655955 L 10.066706,53.146906 C 19.219896,34.675183 32.197231,20.662377 47.773873,12.431053 71.232644,0.03449517 43.05722,0.91790989 413.01332,0.97930383 597.10576,1.0098539 757.68789,1.7589812 769.86251,2.6440311 c 19.88037,1.4452275 23.29862,2.2199115 33.54961,7.6033739 15.92383,8.362647 33.74952,26.550355 41.48031,42.322745 l 6.20345,12.65631 v 237.74231 237.74232 l -7.62701,15.39192 c -11.98718,24.19117 -28.35489,38.6818 -54.35075,48.1178 l -11.63366,4.22279 -311.38477,-0.36449 C 294.83807,607.87862 134.69982,607.26657 110.23692,606.71899 Z M 618.06215,464.27098 C 562.71205,408.91414 516.5998,363.62217 515.59051,363.62217 c -1.00928,0 -19.77474,17.95357 -41.70098,39.89683 -34.33309,34.3597 -40.62516,39.89682 -45.33663,39.89682 -4.71858,0 -11.20111,-5.73446 -47.15147,-41.71032 -22.9244,-22.94067 -42.59733,-41.71031 -43.7176,-41.71031 -1.12026,0 -47.1985,45.4678 -102.39609,101.03954 -91.95866,92.58202 -99.98652,101.1435 -95.9065,102.28153 2.449,0.68309 133.7973,1.32335 291.88509,1.42276 l 287.43237,0.18077 z M 188.71262,445.688 c 63.58847,-63.58265 115.6154,-116.42545 115.6154,-117.42847 0,-1.00301 -57.14526,-58.94647 -126.98946,-128.76325 L 50.349099,72.556695 l 0.498389,233.940475 0.498389,233.94048 4.343726,6.98742 c 3.627178,5.83475 13.155078,13.83576 16.506161,13.86095 0.495811,0.004 52.928396,-52.01537 116.516856,-115.59802 z m 600.58469,111.24891 c 8.99907,-5.27382 14.57085,-14.68719 17.20855,-29.0734 2.2739,-12.40206 2.87468,-456.213561 0.61755,-456.213561 -0.74545,0 -59.50249,58.142831 -130.57116,129.206301 L 547.33646,330.06254 662.94102,445.67768 c 63.5825,63.58832 116.35131,115.61513 117.26402,115.61513 0.91271,0 5.00424,-1.96015 9.09227,-4.3559 z M 464.70129,349.60032 C 537.72586,278.00763 766.7685,48.851655 766.7685,47.383651 c 0,-1.583612 -672.877188,0.270646 -674.540561,1.858841 -1.051766,1.004228 189.710311,192.098788 270.529921,271.001438 49.88701,48.70374 62.05658,59.69967 66.07169,59.69967 3.92387,0 11.19597,-6.15133 35.87174,-30.34328 z"
     id="path911"
     inkscape:connector-curvature="0"
     transform="scale(0.75000002)" />
  <path
     style="opacity:1;fill:#f2ab27;fill-opacity:1;stroke:#f2ab27;stroke-width:0;stroke-miterlimit:4;stroke-dasharray:none;stroke-opacity:0"
     d="M 110.23692,606.71899 65.758916,605.72336 53.448921,599.65859 C 34.820893,590.48111 19.382599,575.02058 10.060617,556.20785 L 2.3815918,540.71076 V 304.68335 68.655955 L 10.066706,53.146906 C 19.219896,34.675183 32.197231,20.662377 47.773873,12.431053 71.232644,0.03449517 43.05722,0.91790989 413.01332,0.97930383 597.10576,1.0098539 757.68789,1.7589812 769.86251,2.6440311 c 19.88037,1.4452275 23.29862,2.2199115 33.54961,7.6033739 15.92383,8.362647 33.74952,26.550355 41.48031,42.322745 l 6.20345,12.65631 v 237.74231 237.74232 l -7.62701,15.39192 c -11.98718,24.19117 -28.35489,38.6818 -54.35075,48.1178 l -11.63366,4.22279 -311.38477,-0.36449 C 294.83807,607.87862 134.69982,607.26657 110.23692,606.71899 Z M 618.06215,464.27098 C 562.71205,408.91414 516.5998,363.62217 515.59051,363.62217 c -1.00928,0 -19.77474,17.95357 -41.70098,39.89683 -34.33309,34.3597 -40.62516,39.89682 -45.33663,39.89682 -4.71858,0 -11.20111,-5.73446 -47.15147,-41.71032 -22.9244,-22.94067 -42.59733,-41.71031 -43.7176,-41.71031 -1.12026,0 -47.1985,45.4678 -102.39609,101.03954 -91.95866,92.58202 -99.98652,101.1435 -95.9065,102.28153 2.449,0.68309 133.7973,1.32335 291.88509,1.42276 l 287.43237,0.18077 z M 188.71262,445.688 c 63.58847,-63.58265 115.6154,-116.42545 115.6154,-117.42847 0,-1.00301 -57.14526,-58.94647 -126.98946,-128.76325 L 50.349099,72.556695 l 0.498389,233.940475 0.498389,233.94048 4.343726,6.98742 c 3.627178,5.83475 13.155078,13.83576 16.506161,13.86095 0.495811,0.004 52.928396,-52.01537 116.516856,-115.59802 z m 600.58469,111.24891 c 8.99907,-5.27382 14.57085,-14.68719 17.20855,-29.0734 2.2739,-12.40206 2.87468,-456.213561 0.61755,-456.213561 -0.74545,0 -59.50249,58.142831 -130.57116,129.206301 L 547.33646,330.06254 662.94102,445.67768 c 63.5825,63.58832 116.35131,115.61513 117.26402,115.61513 0.91271,0 5.00424,-1.96015 9.09227,-4.3559 z M 464.70129,349.60032 C 537.72586,278.00763 766.7685,48.851655 766.7685,47.383651 c 0,-1.583612 -672.877188,0.270646 -674.540561,1.858841 -1.051766,1.004228 189.710311,192.098788 270.529921,271.001438 49.88701,48.70374 62.05658,59.69967 66.07169,59.69967 3.92387,0 11.19597,-6.15133 35.87174,-30.34328 z"
     id="path913"
     inkscape:connector-curvature="0"
     transform="scale(0.75000002)" />
  <path
     style="opacity:1;fill:#f2ab27;fill-opacity:1;stroke:#f2ab27;stroke-width:6.42519686;stroke-miterlimit:4;stroke-dasharray:none;stroke-opacity:1"
     d="m 395.8898,606.68377 -330.075103,-0.96041 -13.869413,-7.936 C 34.367546,587.72946 21.967574,575.15777 11.520721,556.80298 L 3.2883378,542.33897 V 305.12925 67.919536 L 8.5321424,57.531616 C 24.489971,25.919335 46.712933,8.2508548 75.394621,4.3722554 94.332451,1.8113091 760.09122,1.9231211 780.0808,4.4906049 c 9.32753,1.1980371 17.42606,3.5500729 23.54146,6.8370731 12.98301,6.978327 32.021,26.313499 39.92488,40.548135 l 6.64199,11.961975 -9e-5,239.206672 -1.1e-4,239.20668 -8.61398,15.2581 c -13.77178,24.39419 -26.10672,35.18598 -52.12565,45.60445 -12.73258,5.09838 -14.40056,5.31255 -38.3976,4.9302 -13.79771,-0.21985 -173.62057,-0.83191 -355.1619,-1.36012 z M 618.97682,464.1255 C 563.12561,408.79677 516.40759,363.75305 515.15897,364.02836 c -1.24861,0.2753 -19.12527,16.82199 -39.72592,36.7704 -42.63384,41.28402 -45.05725,43.23535 -50.24607,40.45837 -1.9892,-1.06459 -22.03953,-19.78362 -44.5563,-41.59786 -22.51675,-21.81423 -41.75856,-39.66265 -42.75953,-39.66316 -1.97665,-10e-4 -187.62933,185.64149 -195.56714,195.55639 -2.66283,3.32608 -4.37986,6.79438 -3.81561,7.70735 0.61416,0.99375 117.61625,1.6205 291.53098,1.56163 l 290.50507,-0.0983 z M 189.41798,445.96682 c 63.20053,-63.42927 114.91004,-116.28769 114.91004,-117.46312 0,-1.17544 -57.0805,-59.65239 -126.84554,-129.94882 L 50.636933,70.743203 50.538032,305.22711 c -0.08493,201.34528 0.272446,235.20201 2.528699,239.56513 3.293439,6.3688 14.675844,16.50057 18.537367,16.50057 1.597114,0 54.613362,-51.89669 117.813882,-115.32599 z m 602.15,110.104 c 4.71057,-3.41232 8.73276,-8.59717 11.60642,-14.96131 l 4.39767,-9.73932 0.49379,-230.02471 c 0.34542,-160.89977 -0.0818,-229.832878 -1.42147,-229.386309 -3.6418,1.213935 -259.30843,255.700079 -259.30843,258.111129 0,3.44879 230.61937,231.20406 234.12175,231.21415 1.59584,0.005 6.14545,-2.34155 10.11027,-5.21363 z M 441.74056,372.35067 C 455.19652,360.43382 766.7685,49.151643 766.7685,47.625065 c 0,-1.683677 -467.39681,-1.811976 -587.27343,-0.161205 -48.10993,0.662502 -87.345621,1.919029 -87.345621,2.797252 0,2.286634 265.286591,266.998078 301.774241,301.119988 21.86589,20.44819 31.77865,28.5625 34.89305,28.5625 2.53352,0 7.93069,-3.17091 12.92382,-7.59293 z"
     id="path915"
     inkscape:connector-curvature="0"
     transform="scale(0.75000002)" />
</svg>
