<?xml version="1.0" encoding="utf-8"?>
<!-- Generator: Adobe Illustrator 16.0.0, SVG Export Plug-In . SVG Version: 6.00 Build 0)  -->
<!DOCTYPE svg PUBLIC "-//W3C//DTD SVG 1.1//EN" "http://www.w3.org/Graphics/SVG/1.1/DTD/svg11.dtd">
<svg version="1.1" id="Calque_1" xmlns="http://www.w3.org/2000/svg" xmlns:xlink="http://www.w3.org/1999/xlink" x="0px" y="0px"
	 width="960px" height="560px" viewBox="0 0 960 560" enable-background="new 0 0 960 560" xml:space="preserve">
<g>
	<g>
		<path fill-rule="evenodd" clip-rule="evenodd" fill="#BD2020" d="M402.349,204.605c-0.011-31.382-0.385-62.768,0.095-94.143
			c0.485-31.856,21.748-50.484,57.248-50.836c20.395-0.204,40.796-0.254,61.191,0.016c32.699,0.435,54.913,18.95,55.233,48.292
			c0.716,65.423,0.55,130.861-0.006,196.292c-0.194,22.88-16.068,44.093-43.463,46.739c-32.613,3.148-66.994,8.338-99.336-5.59
			c-20.529-8.844-31.001-22.494-30.967-42.617C402.397,270.04,402.357,237.323,402.349,204.605z"/>
		<path fill-rule="evenodd" clip-rule="evenodd" fill="#EFAB27" d="M734.541,271.101c-8.856-3.658-17.901-6.962-26.908-10.326
			c-42.096-15.73-80.841-35.306-106.688-70.417c-2.769-3.763-4.282-10.197-13.065-9.797c0,28.152,1.469,56.17-0.51,84
			c-1.35,19.008,7.223,26.905,27.066,28.206c0.269,0.006,0.511-0.019,0.738-0.06c0.031-0.618,0.166-1.227,0.395-1.794
			c-0.117-0.731-0.074-1.484,0.094-2.204c-0.073-0.297-0.115-0.601-0.14-0.905c-0.157-0.591-0.206-1.211-0.169-1.824
			c-0.404-1.073-0.462-2.29-0.175-3.404c0.173-2.352,1.777-4.576,4.819-4.576c2.632,0,4.188,1.667,4.672,3.639
			c0.046,0.131,0.07,0.268,0.106,0.4c0.886,0.915,1.348,2.179,1.384,3.461c35.344,11.106,35.723,10.803,33.88-12.19
			c6.722,1.668,14.346,1.797,19.218,5.103c16.065,10.895,34.302,6.931,51.864,7.498c4.088,0.135,9.654,0.674,11.282-4.35
			C744.302,275.714,739.354,273.086,734.541,271.101z"/>
		<path fill-rule="evenodd" clip-rule="evenodd" fill="#EFAB27" d="M390.607,180.769c-26.984,31.946-58.783,56.193-98.815,71.794
			c-15.844,6.175-31.761,12.21-47.5,18.581c-4.743,1.918-9.976,4.452-8.259,10.346c1.486,5.109,7.074,4.17,11.221,4.417
			c6.744,0.403,13.732-0.83,20.279,0.239c19.468,3.18,33.624-12.7,54.525-12.074c-8.939,18.949-1.362,22.246,16.336,15.828
			c4.642-1.682,9.501-2.895,14.275-4.293c-0.02-1.036,0.26-2.064,0.795-2.934c0.272-0.797,0.734-1.518,1.379-2.072
			c0.775-1.225,2.093-2.102,3.992-2.102c4.6,0,5.916,5.087,3.954,8.004c-0.117,1.002-0.488,1.968-1.132,2.731
			c0.001,0.001,0.002,0.003,0.003,0.004c13.967,4.53,27.49,2.443,28.338-11.65C391.933,245.397,390.607,213.051,390.607,180.769z"/>
		<path fill-rule="evenodd" clip-rule="evenodd" fill="#FEFEFE" d="M560.255,199.205c0.003,27.991-0.556,55.994,0.27,83.969
			c0.342,11.596-4.266,14.736-16.87,14.516c-36.181-0.639-72.398-0.747-108.572,0.04c-13.704,0.298-16.011-4.594-15.921-15.206
			c0.472-56.647-0.08-113.299,0.386-169.947c0.199-24.125,11.269-33.688,38.659-34.46c20.339-0.575,40.725-0.485,61.071-0.031
			c29.2,0.65,40.398,10.714,40.865,37.146C560.638,143.215,560.252,171.214,560.255,199.205z"/>
		<path fill-rule="evenodd" clip-rule="evenodd" fill="#FCF9F9" d="M489.76,307.688c10.689,0.512,22.922-0.145,22.299,13.369
			c-0.608,13.217-12.753,12.166-23.256,12.279c-10.961,0.117-22.594-0.32-22.19-13.309
			C467.026,306.719,479.727,308.326,489.76,307.688z"/>
		<path fill-rule="evenodd" clip-rule="evenodd" fill="#FCF8F8" d="M544.399,307.871c4.391,1.23,15.042-3.16,12.312,7.408
			c-2.776,10.727-12.809,16.385-24.539,17.281c-11.628,0.893-6.265-8.094-7.143-12.914
			C522.469,305.572,533.906,307.676,544.399,307.871z"/>
		<path fill-rule="evenodd" clip-rule="evenodd" fill="#FCF8F8" d="M453.686,321.291c-0.72,4.99,2.568,13.396-8.947,11.176
			c-11.449-2.203-21.827-7.859-22.963-18.748c-1.017-9.724,9.549-5.096,15.085-5.816
			C447.838,306.473,456.654,308.188,453.686,321.291z"/>
	</g>
	<g>
		<path d="M396.452,360.371v65.563h-16.861l-0.022-44.262l-6.712,44.262h-11.958l-7.079-43.25l-0.023,43.25h-16.861v-65.563h24.959
			c0.74,3.941,1.503,8.588,2.29,13.939l2.739,16.676l4.433-30.615H396.452z"/>
		<path d="M445.293,360.371l-14.066,41.832v23.73h-17.869v-23.73l-13.562-41.832h17.72c2.77,12.799,4.331,21.41,4.685,25.836
			c1.069-6.994,2.859-15.607,5.372-25.836H445.293z"/>
		<path d="M465.132,360.371h32.164v13.121h-12.875v12.432h12.05v12.473h-12.05v14.416h14.157v13.121h-33.446V360.371z"/>
		<path d="M537.466,360.371l11.03,65.563h-19.713l-1.034-11.785h-6.9l-1.16,11.785h-19.941l9.839-65.563H537.466z M527.242,402.527
			c-0.976-7.426-1.955-16.604-2.938-27.537c-1.965,12.555-3.199,21.734-3.701,27.537H527.242z"/>
		<path d="M592.642,380.215h-17.915v-4.859c0-2.268-0.229-3.713-0.687-4.334c-0.459-0.621-1.223-0.932-2.291-0.932
			c-1.161,0-2.039,0.42-2.635,1.258s-0.894,2.105-0.894,3.809c0,2.188,0.334,3.836,1.004,4.943c0.641,1.107,2.457,2.443,5.451,4.01
			c8.586,4.504,13.995,8.199,16.225,11.088s3.345,7.545,3.345,13.971c0,4.67-0.618,8.113-1.855,10.326
			c-1.237,2.215-3.628,4.07-7.171,5.568s-7.666,2.248-12.37,2.248c-5.162,0-9.568-0.865-13.219-2.592
			c-3.65-1.729-6.04-3.928-7.17-6.602c-1.131-2.672-1.695-6.465-1.695-11.379v-4.293h17.914v7.979c0,2.457,0.252,4.035,0.756,4.738
			c0.505,0.701,1.397,1.053,2.681,1.053s2.237-0.445,2.863-1.336c0.627-0.893,0.939-2.215,0.939-3.969
			c0-3.861-0.596-6.385-1.787-7.574c-1.222-1.188-4.23-3.172-9.025-5.951c-4.796-2.809-7.973-4.846-9.53-6.115
			s-2.849-3.023-3.871-5.264c-1.023-2.242-1.535-5.104-1.535-8.586c0-5.021,0.726-8.693,2.176-11.014
			c1.451-2.322,3.796-4.139,7.033-5.447c3.238-1.309,7.147-1.965,11.729-1.965c5.009,0,9.277,0.717,12.806,2.146
			c3.528,1.432,5.864,3.234,7.01,5.406c1.146,2.174,1.719,5.865,1.719,11.076V380.215z"/>
		<path d="M641.391,360.371l-14.065,41.832v23.73h-17.869v-23.73l-13.562-41.832h17.72c2.77,12.799,4.331,21.41,4.685,25.836
			c1.069-6.994,2.858-15.607,5.372-25.836H641.391z"/>
	</g>
	<g>
		<path fill="#BD2020" d="M330.372,475.971l8.278-35.068h-14.692l1.069-4.51h35.249l-1.069,4.51h-14.57l-8.278,35.068H330.372z"/>
		<path fill="#BD2020" d="M357.313,475.971l9.377-39.578h18.785c3.706,0,6.517,0.275,8.431,0.824s3.416,1.578,4.505,3.09
			c1.089,1.514,1.634,3.42,1.634,5.725c0,3.221-1.191,5.895-3.574,8.018c-2.382,2.123-6.231,3.5-11.546,4.131
			c1.629,1.063,2.861,2.105,3.696,3.131c1.873,2.322,3.38,4.725,4.521,7.209l3.421,7.451h-6.689l-3.207-7.371
			c-1.161-2.664-2.484-4.967-3.971-6.91c-1.019-1.35-2.057-2.236-3.116-2.66c-1.059-0.422-2.78-0.635-5.162-0.635h-6.964
			l-4.154,17.576H357.313z M368.461,454.104h8.277c3.829,0,6.323-0.045,7.484-0.135c2.26-0.199,4.113-0.648,5.559-1.352
			c1.446-0.701,2.565-1.646,3.36-2.834c0.794-1.188,1.191-2.465,1.191-3.834c0-1.15-0.295-2.154-0.886-3.01
			c-0.59-0.855-1.364-1.436-2.321-1.74c-0.957-0.307-2.586-0.459-4.887-0.459h-14.601L368.461,454.104z"/>
		<path fill="#BD2020" d="M398.304,475.971l25.383-39.578h7.056l7.392,39.578h-5.803l-2.168-11.393h-18.113l-7.178,11.393H398.304z
			 M414.614,460.502h14.814l-1.741-9.936c-0.672-3.941-1.089-7.227-1.252-9.854c-1.019,2.268-2.505,4.959-4.46,8.072
			L414.614,460.502z"/>
		<path fill="#BD2020" d="M444.335,475.971l9.377-39.578h5.804l7.545,14.85c2.301,4.535,4.123,8.35,5.467,11.445
			c0.774,1.801,1.67,4.23,2.688,7.289c0.55-3.33,1.242-6.768,2.077-10.313l5.498-23.271h5.834l-9.347,39.578h-5.926l-11.118-22.867
			c-1.976-4.031-3.513-7.586-4.612-10.664c-0.306,2.574-0.896,5.732-1.772,9.477l-5.681,24.055H444.335z"/>
		<path fill="#BD2020" d="M490.854,463.174l5.864-0.486l-0.061,1.377c0,1.529,0.396,2.93,1.191,4.197
			c0.794,1.27,2.107,2.25,3.939,2.943c1.833,0.693,4.012,1.039,6.537,1.039c3.584,0,6.317-0.693,8.201-2.078
			c1.884-1.387,2.825-2.971,2.825-4.752c0-1.242-0.499-2.375-1.496-3.4c-1.019-1.008-3.798-2.377-8.339-4.104
			c-3.523-1.352-5.926-2.385-7.209-3.105c-2.016-1.17-3.502-2.443-4.459-3.82s-1.436-2.947-1.436-4.711
			c0-2.033,0.631-3.869,1.894-5.508c1.263-1.637,3.11-2.889,5.544-3.752s5.177-1.295,8.231-1.295c3.646,0,6.72,0.539,9.225,1.619
			s4.322,2.52,5.452,4.32c1.131,1.799,1.695,3.518,1.695,5.156c0,0.162-0.01,0.432-0.03,0.809l-5.773,0.406
			c0-1.117-0.111-1.99-0.336-2.619c-0.407-1.098-1.038-2.025-1.894-2.781s-2.031-1.363-3.528-1.822
			c-1.496-0.459-3.171-0.688-5.024-0.688c-3.258,0-5.793,0.646-7.605,1.943c-1.385,0.99-2.077,2.303-2.077,3.941
			c0,0.973,0.285,1.84,0.855,2.605c0.57,0.764,1.599,1.516,3.085,2.254c1.059,0.521,3.574,1.557,7.545,3.105
			c3.217,1.26,5.437,2.248,6.658,2.969c1.629,0.953,2.882,2.109,3.757,3.469c0.876,1.359,1.313,2.902,1.313,4.631
			c0,2.141-0.738,4.117-2.214,5.926c-1.477,1.809-3.519,3.207-6.125,4.197s-5.589,1.484-8.949,1.484
			c-5.07,0-9.209-0.977-12.416-2.928C492.488,471.764,490.875,468.25,490.854,463.174z"/>
		<path fill="#BD2020" d="M531.021,475.971l9.346-39.578h29.109l-1.068,4.51h-23.123l-2.963,12.607h23.551l-1.069,4.508h-23.55
			l-4.246,17.953H531.021z"/>
		<path fill="#BD2020" d="M569.202,475.971l9.377-39.578h32.316l-1.068,4.51h-26.33l-2.933,12.311h25.658l-1.069,4.508h-25.657
			l-3.238,13.768h28.193l-1.069,4.482H569.202z"/>
		<path fill="#BD2020" d="M611.049,475.971l9.377-39.578h18.785c3.706,0,6.517,0.275,8.431,0.824s3.416,1.578,4.505,3.09
			c1.09,1.514,1.635,3.42,1.635,5.725c0,3.221-1.191,5.895-3.574,8.018s-6.231,3.5-11.546,4.131
			c1.629,1.063,2.861,2.105,3.696,3.131c1.873,2.322,3.38,4.725,4.521,7.209l3.421,7.451h-6.689l-3.207-7.371
			c-1.161-2.664-2.484-4.967-3.971-6.91c-1.019-1.35-2.057-2.236-3.116-2.66c-1.059-0.422-2.779-0.635-5.162-0.635h-6.964
			l-4.154,17.576H611.049z M622.197,454.104h8.277c3.829,0,6.323-0.045,7.484-0.135c2.26-0.199,4.113-0.648,5.559-1.352
			c1.446-0.701,2.565-1.646,3.36-2.834c0.794-1.188,1.19-2.465,1.19-3.834c0-1.15-0.295-2.154-0.886-3.01
			c-0.59-0.855-1.364-1.436-2.321-1.74c-0.957-0.307-2.586-0.459-4.887-0.459h-14.601L622.197,454.104z"/>
	</g>
</g>
</svg>
